<svg xmlns:xlink="http://www.w3.org/1999/xlink" viewBox="0 0 1033 211" style="shape-rendering:geometricPrecision; text-rendering:geometricPrecision; image-rendering:optimizeQuality; fill-rule:evenodd; clip-rule:evenodd" version="1.1" height="322px" width="1575px" xml:space="preserve" xmlns="http://www.w3.org/2000/svg">
 <defs>
  <style type="text/css">
   
    .fil1 {fill:white}
    .fil0 {fill:white;fill-rule:nonzero}
   
  </style>
 </defs>
 <g id="Layer_x0020_1">
  <metadata id="CorelCorpID_0Corel-Layer"></metadata>
  <g id="_429818544">
   <g>
    <path d="M177 146l0 0c41,-16 76,-35 100,-53 21,-16 32,-30 29,-38 -3,-7 -17,-10 -39,-9 -4,-6 -8,-12 -13,-18 1,0 2,0 4,0 35,-3 60,4 66,20 6,17 -8,39 -36,60 -25,19 -61,39 -104,56l0 0 -1 0c-43,17 -84,26 -115,29 -35,3 -60,-4 -66,-21 -7,-17 7,-38 35,-60 2,-1 4,-2 6,-4 0,8 1,15 2,22 -18,15 -28,28 -26,35 3,8 21,11 48,9 29,-3 68,-12 110,-28z" class="fil0"></path>
    <path d="M163 211c45,0 83,-28 98,-68 -4,3 -8,5 -12,7 -6,3 -12,7 -19,10 -16,19 -40,32 -67,32 -5,0 -9,0 -13,-1 -9,2 -16,5 -24,6 -4,1 -7,2 -11,3 15,7 31,11 48,11zm103 -128c-10,-47 -53,-83 -103,-83 -59,0 -106,47 -106,106 0,19 5,37 15,53 6,-1 13,-2 21,-3 -1,-1 -2,-2 -2,-3 11,-19 28,-46 42,-68l19 12 1 43c6,-2 12,-5 18,-7l1 0 0 0 0 0 2 -1 -1 -36 19 -11 19 31c5,-3 10,-5 15,-8 1,0 3,-1 4,-2l-20 -32 13 -8 0 -22c14,13 23,31 26,51 6,-4 12,-8 17,-12zm-103 -64c22,0 43,9 58,23l-59 36 -58 -36c16,-14 36,-23 59,-23zm-83 112c-2,-8 -4,-17 -4,-25 0,-24 10,-46 26,-62l0 22 12 8 -34 57z" class="fil1"></path>
   </g>
   <polygon points="994,124 1033,124 1033,105 975,105 975,210 1033,210 1033,191 994,191 994,168 1023,168 1023,148 994,148" class="fil1"></polygon>
   <path d="M965 121c-4,-6 -9,-11 -14,-14 -7,-2 -13,-4 -20,-3 -8,1 -13,5 -18,9 -5,5 -8,12 -8,19 -1,4 0,9 2,14 2,4 5,8 9,11 3,3 6,5 9,6 3,1 5,2 8,2 2,1 4,1 6,2 2,1 3,1 4,3 3,1 4,3 4,5 1,1 1,3 1,5 0,3 -1,6 -3,8 -2,2 -4,3 -7,4 -4,0 -7,0 -11,-2 -2,-1 -4,-3 -6,-6 -1,-1 -1,-2 -1,-3 0,0 -1,-1 -1,-2l-19 2c0,3 1,5 1,7 1,2 2,3 3,5 3,7 9,12 15,15 7,3 14,4 21,3 8,-1 14,-5 19,-10 5,-5 8,-12 9,-19 0,-5 -1,-10 -3,-15 -2,-5 -5,-9 -10,-13 -2,-2 -5,-4 -8,-5 -3,-1 -6,-2 -8,-2 -3,-1 -4,-2 -6,-2 -2,-1 -3,-2 -5,-3 -1,-1 -2,-3 -3,-4 -1,-1 -1,-3 -1,-5 0,-2 1,-4 3,-6 2,-2 4,-3 6,-3 3,-1 6,0 9,1 2,2 4,3 6,5l17 -9z" class="fil1"></path>
   <path d="M876 171c3,-1 7,-3 10,-7 6,-6 10,-15 10,-24 0,-10 -4,-18 -10,-25 -6,-7 -15,-10 -25,-10l-9 0 -19 0 0 105 19 0 0 -35 3 0 22 35 22 0 -23 -39zm-24 -47l9 0c5,0 8,2 11,5 3,3 5,7 5,11 0,4 -2,8 -5,11 -3,3 -6,4 -11,4l-9 0 0 -31z" class="fil1"></path>
   <polygon points="786,124 824,124 824,105 766,105 766,210 824,210 824,191 786,191 786,168 814,168 814,148 786,148" class="fil1"></polygon>
   <polygon points="686,105 716,166 745,105 766,105 725,192 716,210 707,192 665,105" class="fil1"></polygon>
   <polygon points="665,144 665,210 646,210 646,105 646,105" class="fil1"></polygon>
   <path d="M614 171c4,-1 7,-3 10,-7 7,-6 11,-15 11,-24 0,-10 -4,-18 -11,-25 -6,-7 -15,-10 -24,-10l-9 0 -19 0 0 105 19 0 0 -35 3 0 21 35 22 0 -23 -39zm-23 -47l9 0c4,0 8,2 11,5 3,3 4,7 4,11 0,4 -1,8 -4,11 -3,3 -7,4 -11,4l-9 0 0 -31z" class="fil1"></path>
   <polygon points="503,105 563,105 563,124 542,124 542,210 523,210 523,124 503,124" class="fil1"></polygon>
   <polygon points="456,124 494,124 494,105 437,105 437,210 494,210 494,191 456,191 456,168 485,168 485,148 456,148" class="fil1"></polygon>
   <polygon points="311,210 330,154 360,210 390,154 410,210 430,210 401,126 393,104 383,125 360,171 338,125 328,104 320,126 290,210" class="fil1"></polygon>
  </g>
 </g>
</svg>
